<?xml version="1.0" encoding="utf-8"?>
<!-- Generator: Adobe Illustrator 26.0.3, SVG Export Plug-In . SVG Version: 6.00 Build 0)  -->
<svg version="1.1" id="Layer_1" xmlns="http://www.w3.org/2000/svg" xmlns:xlink="http://www.w3.org/1999/xlink" x="0px" y="0px"
	 viewBox="0 0 64 64" style="enable-background:new 0 0 64 64;" xml:space="preserve">
<style type="text/css">
	.st0{fill:#232323;}
	.st1{fill:#F1B0A2;}
</style>
<path class="st0" d="M34.3,8.3c-14.4,0-26,11.6-26,26c0,13,9.6,23.8,22.1,25.7V41.2H24v-6.8h6.4v-4.5c0-7.5,3.7-10.8,9.9-10.8
	c3,0,4.6,0.2,5.3,0.3v6h-4.3c-2.7,0-3.6,2.5-3.6,5.4v3.7h7.8l-1.1,6.8h-6.7V60c12.7-1.7,22.5-12.6,22.5-25.7
	C60.3,20,48.7,8.3,34.3,8.3z"/>
<path class="st1" d="M32,6C17.6,6,6,17.6,6,32c0,13,9.6,23.8,22.1,25.7V38.9h-6.4v-6.8h6.4v-4.5c0-7.5,3.7-10.8,9.9-10.8
	c3,0,4.6,0.2,5.3,0.3v6h-4.3c-2.7,0-3.6,2.5-3.6,5.4v3.7h7.8l-1.1,6.8h-6.7v18.8C48.2,56,58,45.2,58,32C58,17.6,46.4,6,32,6z"/>
</svg>
