<?xml version="1.0" encoding="utf-8"?>
<!-- Generator: Adobe Illustrator 26.0.3, SVG Export Plug-In . SVG Version: 6.00 Build 0)  -->
<svg version="1.1" id="Layer_1" xmlns="http://www.w3.org/2000/svg" xmlns:xlink="http://www.w3.org/1999/xlink" x="0px" y="0px"
	 viewBox="0 0 50 50" style="enable-background:new 0 0 50 50;" xml:space="preserve">
<style type="text/css">
	.st0{fill:#232323;}
	.st1{fill:#F1B0A2;}
</style>
<path class="st0" d="M27.3,4.3c-12.7,0-23,10.3-23,23s10.3,23,23,23s23-10.3,23-23S40,4.3,27.3,4.3z M37.1,37.6
	c-0.3,0.4-0.8,0.7-1.2,0.7c-0.3,0-0.6-0.1-0.8-0.3c-2.5-1.6-6.7-2.7-10.2-2.7c-3.7,0-6.5,0.9-6.5,0.9c-0.8,0.3-1.6-0.2-1.9-0.9
	c-0.3-0.8,0.2-1.6,0.9-1.9c0.1,0,3.3-1.1,7.5-1.1c3.5,0,8.4,0.9,11.8,3.3C37.3,36,37.5,37,37.1,37.6z M40.1,31.5
	c-0.3,0.5-0.9,0.8-1.5,0.8c-0.3,0-0.6-0.1-0.9-0.3c-4.5-2.8-9.1-3.4-13.1-3.4c-4.5,0-8.1,0.9-8.1,0.9c-0.9,0.3-1.9-0.3-2.1-1.2
	c-0.3-0.9,0.3-1.9,1.2-2.1c0.3-0.1,3.9-1,8.8-1c4.5,0,10,0.6,15.2,3.8C40.3,29.6,40.6,30.7,40.1,31.5z M43,24.3c-0.4,0.6-1,1-1.7,1
	c-0.3,0-0.7-0.1-1-0.3c-5.2-3.1-11.6-3.7-16-3.7c0,0,0,0-0.1,0c-5.3,0-9.4,0.9-9.5,0.9c-1.1,0.2-2.2-0.4-2.4-1.5
	c-0.2-1.1,0.4-2.1,1.5-2.4c0.2,0,4.6-1.1,10.4-1.1c0,0,0,0,0.1,0c4.9,0,12,0.8,18,4.3C43.3,22.2,43.6,23.4,43,24.3z"/>
<path class="st1" d="M25,2C12.3,2,2,12.3,2,25s10.3,23,23,23s23-10.3,23-23S37.7,2,25,2z M34.7,35.3C34.5,35.8,34,36,33.5,36
	c-0.3,0-0.6-0.1-0.8-0.3C30.2,34.1,26,33,22.5,33c-3.7,0-6.5,0.9-6.5,0.9c-0.8,0.3-1.6-0.2-1.9-0.9s0.2-1.6,0.9-1.9
	c0.1,0,3.3-1.1,7.5-1.1c3.5,0,8.4,0.9,11.8,3.3C35,33.7,35.2,34.6,34.7,35.3z M37.7,29.2c-0.3,0.5-0.9,0.8-1.5,0.8
	c-0.3,0-0.6-0.1-0.9-0.3c-4.5-2.8-9.1-3.4-13.1-3.4c-4.5,0-8.1,0.9-8.1,0.9c-0.9,0.3-1.9-0.3-2.1-1.2c-0.3-0.9,0.3-1.9,1.2-2.1
	c0.3-0.1,3.9-1,8.8-1c4.5,0,10,0.6,15.2,3.8C38,27.3,38.2,28.4,37.7,29.2z M40.7,22c-0.4,0.6-1,1-1.7,1c-0.3,0-0.7-0.1-1-0.3
	C32.8,19.7,26.4,19,22,19c0,0,0,0-0.1,0c-5.3,0-9.4,0.9-9.5,0.9c-1.1,0.2-2.2-0.4-2.4-1.5c-0.2-1.1,0.4-2.1,1.5-2.4
	c0.2,0,4.6-1.1,10.4-1.1c0,0,0,0,0.1,0c4.9,0,12,0.8,18,4.3C41,19.8,41.3,21.1,40.7,22z"/>
</svg>
