<?xml version="1.0" encoding="utf-8"?>
<!-- Generator: Adobe Illustrator 26.0.3, SVG Export Plug-In . SVG Version: 6.00 Build 0)  -->
<svg version="1.1" id="Layer_1" xmlns="http://www.w3.org/2000/svg" xmlns:xlink="http://www.w3.org/1999/xlink" x="0px" y="0px"
	 viewBox="0 0 64 64" style="enable-background:new 0 0 64 64;" xml:space="preserve">
<style type="text/css">
	.st0{fill:#232323;}
	.st1{fill:#F1B0A2;}
</style>
<path class="st0" d="M23.9,9.3c-8,0-14.6,6.5-14.6,14.6v20.8c0,8,6.5,14.6,14.6,14.6h20.8c8,0,14.6-6.5,14.6-14.6V23.9
	c0-8-6.5-14.6-14.6-14.6H23.9z M49.3,17.3c1.1,0,2,0.9,2,2s-0.9,2-2,2s-2-0.9-2-2S48.2,17.3,49.3,17.3z M34.3,21.3
	c7.2,0,13,5.8,13,13s-5.8,13-13,13c-7.2,0-13-5.8-13-13S27.1,21.3,34.3,21.3z M34.3,25.3c-5,0-9,4-9,9s4,9,9,9s9-4,9-9
	S39.3,25.3,34.3,25.3z"/>
<path class="st1" d="M21.6,7C13.5,7,7,13.5,7,21.6v20.8c0,8,6.5,14.6,14.6,14.6h20.8c8,0,14.6-6.5,14.6-14.6V21.6
	C57,13.5,50.5,7,42.4,7H21.6z M47,15c1.1,0,2,0.9,2,2s-0.9,2-2,2s-2-0.9-2-2S45.9,15,47,15z M32,19c7.2,0,13,5.8,13,13
	s-5.8,13-13,13c-7.2,0-13-5.8-13-13S24.8,19,32,19z M32,23c-5,0-9,4-9,9s4,9,9,9s9-4,9-9S37,23,32,23z"/>
</svg>
