<?xml version="1.0" encoding="utf-8"?>
<!-- Generator: Adobe Illustrator 26.0.3, SVG Export Plug-In . SVG Version: 6.00 Build 0)  -->
<svg version="1.1" id="Layer_1" xmlns="http://www.w3.org/2000/svg" xmlns:xlink="http://www.w3.org/1999/xlink" x="0px" y="0px"
	 viewBox="0 0 64 64" style="enable-background:new 0 0 64 64;" xml:space="preserve">
<style type="text/css">
	.st0{fill:#232323;}
	.st1{fill:#F1B0A2;}
</style>
<path class="st0" d="M58.8,19.8c-0.3-1.4-1.4-2.6-2.9-3.1c-3.8-1.2-12.1-2.4-21.6-2.4s-17.8,1.2-21.6,2.4c-1.4,0.5-2.5,1.6-2.9,3.1
	c-0.6,2.7-1.5,7.8-1.5,14.6s0.9,11.8,1.5,14.6c0.3,1.4,1.4,2.6,2.9,3.1c3.8,1.2,12.1,2.4,21.6,2.4s17.8-1.2,21.6-2.4
	c1.4-0.5,2.5-1.6,2.9-3.1c0.6-2.7,1.5-7.8,1.5-14.6S59.4,22.5,58.8,19.8z M29.3,42.3v-16l14.9,8L29.3,42.3z"/>
<path class="st1" d="M56.5,17.4c-0.3-1.4-1.4-2.6-2.9-3.1C49.8,13.2,41.5,12,32,12s-17.8,1.2-21.6,2.4C9,14.8,7.9,16,7.5,17.4
	C6.9,20.2,6,25.2,6,32s0.9,11.8,1.5,14.6c0.3,1.4,1.4,2.6,2.9,3.1C14.2,50.8,22.5,52,32,52s17.8-1.2,21.6-2.4
	c1.4-0.5,2.5-1.6,2.9-3.1C57.1,43.8,58,38.8,58,32S57.1,20.2,56.5,17.4z M27,40V24l14.9,8L27,40z"/>
</svg>
