<?xml version="1.0" encoding="utf-8"?>
<!-- Generator: Adobe Illustrator 26.0.3, SVG Export Plug-In . SVG Version: 6.00 Build 0)  -->
<svg version="1.1" id="Layer_1" xmlns="http://www.w3.org/2000/svg" xmlns:xlink="http://www.w3.org/1999/xlink" x="0px" y="0px"
	 viewBox="0 0 64 64" style="enable-background:new 0 0 64 64;" xml:space="preserve">
<style type="text/css">
	.st0{fill:#232323;}
	.st1{fill:#F1B0A2;}
</style>
<path class="st0" d="M50.3,10.3h-32c-4.4,0-8,3.6-8,8v32c0,4.4,3.6,8,8,8h32c4.4,0,8-3.6,8-8v-32C58.3,13.9,54.7,10.3,50.3,10.3z
	 M52.3,29.3c-4,0-6.9-1.1-9-2.7v14.2c0,6.3-5.2,11.5-11.5,11.5s-11.5-5.2-11.5-11.5s5.2-11.5,11.5-11.5h2v5h-2
	c-3.6,0-6.5,2.9-6.5,6.5s2.9,6.5,6.5,6.5s6.5-2.9,6.5-6.5V16.3h5c0,1.3,0.5,8,9,8V29.3z"/>
<path class="st1" d="M48,8H16c-4.4,0-8,3.6-8,8v32c0,4.4,3.6,8,8,8h32c4.4,0,8-3.6,8-8V16C56,11.6,52.4,8,48,8z M50,27
	c-4,0-6.9-1.1-9-2.7v14.2C41,44.8,35.8,50,29.5,50S18,44.8,18,38.5S23.2,27,29.5,27h2v5h-2c-3.6,0-6.5,2.9-6.5,6.5s2.9,6.5,6.5,6.5
	s6.5-2.9,6.5-6.5V14h5c0,1.3,0.5,8,9,8V27z"/>
</svg>
